{"asset":{"version":"2.0","generator":"Blockbench 4.10.3 glTF exporter"},"scenes":[{"nodes":[19],"name":"blockbench_export"}],"scene":0,"nodes":[{"translation":[0.75,0,0.25],"name":"pyramid","mesh":0},{"name":"pyramid","mesh":1},{"translation":[0.3125,0,0.125],"name":"floor","mesh":2},{"rotation":[-0.7071067811865468,-4.415885040048121e-17,4.415885040048112e-17,0.7071067811865482],"translation":[0,0.375,0],"name":"plane","mesh":3},{"rotation":[-0.4999999999999996,-0.4999999999999994,-0.5000000000000003,0.5000000000000007],"translation":[0,0.375,0],"name":"plane","mesh":4},{"rotation":[0,-0.3826834323650898,0,0.9238795325112867],"translation":[0,0.0625,0],"name":"tree_trunk","mesh":5},{"rotation":[0,0.3826834323650898,0,0.9238795325112867],"name":"tree_trunk","mesh":6},{"translation":[1.15625,0.0625,0.0625],"name":"tree2","children":[3,4,5,6]},{"rotation":[0,-0.3826834323650898,0,0.9238795325112867],"name":"tree_trunk","mesh":7},{"rotation":[-0.7071067811865468,-4.415885040048121e-17,4.415885040048112e-17,0.7071067811865482],"translation":[0,0.375,0],"name":"plane","mesh":8},{"rotation":[-0.4999999999999996,-0.4999999999999994,-0.5000000000000003,0.5000000000000007],"translation":[0,0.375,0],"name":"plane","mesh":9},{"rotation":[0,0.3826834323650898,0,0.9238795325112867],"translation":[0,0.0625,0],"name":"tree_trunk","mesh":10},{"translation":[-0.34375,0.125,-0.8125],"name":"tree3","children":[8,9,10,11]},{"rotation":[-0.7071067811865468,-4.415885040048121e-17,4.415885040048112e-17,0.7071067811865482],"translation":[0,0.375,0],"name":"plane","mesh":11},{"rotation":[-0.4999999999999996,-0.4999999999999994,-0.5000000000000003,0.5000000000000007],"translation":[0,0.375,0],"name":"plane","mesh":12},{"rotation":[0,-0.3826834323650898,0,0.9238795325112867],"name":"tree_trunk","mesh":13},{"rotation":[0,0.3826834323650898,0,0.9238795325112867],"name":"tree_trunk","mesh":14},{"translation":[0.7187500000000001,0,-0.75],"name":"tree","children":[13,14,15,16]},{"name":"main","children":[0,1,2,7,12,17]},{"children":[18]}],"bufferViews":[{"buffer":0,"byteOffset":0,"byteLength":288,"target":34962,"byteStride":12},{"buffer":0,"byteOffset":288,"byteLength":288,"target":34962,"byteStride":12},{"buffer":0,"byteOffset":576,"byteLength":192,"target":34962,"byteStride":8},{"buffer":0,"byteOffset":768,"byteLength":72,"target":34963},{"buffer":0,"byteOffset":840,"byteLength":288,"target":34962,"byteStride":12},{"buffer":0,"byteOffset":1128,"byteLength":288,"target":34962,"byteStride":12},{"buffer":0,"byteOffset":1416,"byteLength":192,"target":34962,"byteStride":8},{"buffer":0,"byteOffset":1608,"byteLength":72,"target":34963},{"buffer":0,"byteOffset":1680,"byteLength":48,"target":34962,"byteStride":12},{"buffer":0,"byteOffset":1728,"byteLength":48,"target":34962,"byteStride":12},{"buffer":0,"byteOffset":1776,"byteLength":32,"target":34962,"byteStride":8},{"buffer":0,"byteOffset":1808,"byteLength":12,"target":34963},{"buffer":0,"byteOffset":1820,"byteLength":48,"target":34962,"byteStride":12},{"buffer":0,"byteOffset":1868,"byteLength":48,"target":34962,"byteStride":12},{"buffer":0,"byteOffset":1916,"byteLength":32,"target":34962,"byteStride":8},{"buffer":0,"byteOffset":1948,"byteLength":12,"target":34963},{"buffer":0,"byteOffset":1960,"byteLength":48,"target":34962,"byteStride":12},{"buffer":0,"byteOffset":2008,"byteLength":48,"target":34962,"byteStride":12},{"buffer":0,"byteOffset":2056,"byteLength":32,"target":34962,"byteStride":8},{"buffer":0,"byteOffset":2088,"byteLength":12,"target":34963},{"buffer":0,"byteOffset":2100,"byteLength":48,"target":34962,"byteStride":12},{"buffer":0,"byteOffset":2148,"byteLength":48,"target":34962,"byteStride":12},{"buffer":0,"byteOffset":2196,"byteLength":32,"target":34962,"byteStride":8},{"buffer":0,"byteOffset":2228,"byteLength":12,"target":34963},{"buffer":0,"byteOffset":2240,"byteLength":48,"target":34962,"byteStride":12},{"buffer":0,"byteOffset":2288,"byteLength":48,"target":34962,"byteStride":12},{"buffer":0,"byteOffset":2336,"byteLength":32,"target":34962,"byteStride":8},{"buffer":0,"byteOffset":2368,"byteLength":12,"target":34963},{"buffer":0,"byteOffset":2380,"byteLength":48,"target":34962,"byteStride":12},{"buffer":0,"byteOffset":2428,"byteLength":48,"target":34962,"byteStride":12},{"buffer":0,"byteOffset":2476,"byteLength":32,"target":34962,"byteStride":8},{"buffer":0,"byteOffset":2508,"byteLength":12,"target":34963},{"buffer":0,"byteOffset":2520,"byteLength":48,"target":34962,"byteStride":12},{"buffer":0,"byteOffset":2568,"byteLength":48,"target":34962,"byteStride":12},{"buffer":0,"byteOffset":2616,"byteLength":32,"target":34962,"byteStride":8},{"buffer":0,"byteOffset":2648,"byteLength":12,"target":34963},{"buffer":0,"byteOffset":2660,"byteLength":48,"target":34962,"byteStride":12},{"buffer":0,"byteOffset":2708,"byteLength":48,"target":34962,"byteStride":12},{"buffer":0,"byteOffset":2756,"byteLength":32,"target":34962,"byteStride":8},{"buffer":0,"byteOffset":2788,"byteLength":12,"target":34963},{"buffer":0,"byteOffset":2800,"byteLength":48,"target":34962,"byteStride":12},{"buffer":0,"byteOffset":2848,"byteLength":48,"target":34962,"byteStride":12},{"buffer":0,"byteOffset":2896,"byteLength":32,"target":34962,"byteStride":8},{"buffer":0,"byteOffset":2928,"byteLength":12,"target":34963},{"buffer":0,"byteOffset":2940,"byteLength":48,"target":34962,"byteStride":12},{"buffer":0,"byteOffset":2988,"byteLength":48,"target":34962,"byteStride":12},{"buffer":0,"byteOffset":3036,"byteLength":32,"target":34962,"byteStride":8},{"buffer":0,"byteOffset":3068,"byteLength":12,"target":34963},{"buffer":0,"byteOffset":3080,"byteLength":48,"target":34962,"byteStride":12},{"buffer":0,"byteOffset":3128,"byteLength":48,"target":34962,"byteStride":12},{"buffer":0,"byteOffset":3176,"byteLength":32,"target":34962,"byteStride":8},{"buffer":0,"byteOffset":3208,"byteLength":12,"target":34963},{"buffer":0,"byteOffset":3220,"byteLength":48,"target":34962,"byteStride":12},{"buffer":0,"byteOffset":3268,"byteLength":48,"target":34962,"byteStride":12},{"buffer":0,"byteOffset":3316,"byteLength":32,"target":34962,"byteStride":8},{"buffer":0,"byteOffset":3348,"byteLength":12,"target":34963},{"buffer":0,"byteOffset":3360,"byteLength":48,"target":34962,"byteStride":12},{"buffer":0,"byteOffset":3408,"byteLength":48,"target":34962,"byteStride":12},{"buffer":0,"byteOffset":3456,"byteLength":32,"target":34962,"byteStride":8},{"buffer":0,"byteOffset":3488,"byteLength":12,"target":34963}],"buffers":[{"byteLength":3500,"uri":"data:application/octet-stream;base64,"}],"accessors":[{"bufferView":0,"componentType":5126,"count":24,"max":[0.25,0.5625,0.25],"min":[-0.25,0,-0.5],"type":"VEC3"},{"bufferView":1,"componentType":5126,"count":24,"max":[0.9486833214759827,1,0.9761870503425598],"min":[-0.9486833214759827,-1,-0.8320503234863281],"type":"VEC3"},{"bufferView":2,"componentType":5126,"count":24,"max":[0.71875,0.78125],"min":[0,0],"type":"VEC2"},{"bufferView":3,"componentType":5123,"count":36,"max":[23],"min":[0],"type":"SCALAR"},{"bufferView":4,"componentType":5126,"count":24,"max":[0.5,0.625,0.25],"min":[-0.25,0,-0.25],"type":"VEC3"},{"bufferView":5,"componentType":5126,"count":24,"max":[0.8944271802902222,1,0.9805806875228882],"min":[-0.8944271802902222,-1,-0.9805806875228882],"type":"VEC3"},{"bufferView":6,"componentType":5126,"count":24,"max":[0.71875,0.78125],"min":[0,0],"type":"VEC2"},{"bufferView":7,"componentType":5123,"count":36,"max":[23],"min":[0],"type":"SCALAR"},{"bufferView":8,"componentType":5126,"count":4,"max":[1,0,1],"min":[-1,0,-1],"type":"VEC3"},{"bufferView":9,"componentType":5126,"count":4,"max":[0,1,0],"min":[0,1,0],"type":"VEC3"},{"bufferView":10,"componentType":5126,"count":4,"max":[1,1],"min":[0,0],"type":"VEC2"},{"bufferView":11,"componentType":5123,"count":6,"max":[3],"min":[0],"type":"SCALAR"},{"bufferView":12,"componentType":5126,"count":4,"max":[0.1875,0,0.1875],"min":[-0.1875,0,-0.1875],"type":"VEC3"},{"bufferView":13,"componentType":5126,"count":4,"max":[0,1,0],"min":[0,1,0],"type":"VEC3"},{"bufferView":14,"componentType":5126,"count":4,"max":[0.5,0.375],"min":[0.125,0],"type":"VEC2"},{"bufferView":15,"componentType":5123,"count":6,"max":[3],"min":[0],"type":"SCALAR"},{"bufferView":16,"componentType":5126,"count":4,"max":[0.1875,0,0.1875],"min":[-0.1875,0,-0.1875],"type":"VEC3"},{"bufferView":17,"componentType":5126,"count":4,"max":[0,1,0],"min":[0,1,0],"type":"VEC3"},{"bufferView":18,"componentType":5126,"count":4,"max":[0.5,0.375],"min":[0.125,0],"type":"VEC2"},{"bufferView":19,"componentType":5123,"count":6,"max":[3],"min":[0],"type":"SCALAR"},{"bufferView":20,"componentType":5126,"count":4,"max":[0.03125,0.375,0],"min":[-0.03125,-0.125,-2.7755575615628914e-17],"type":"VEC3"},{"bufferView":21,"componentType":5126,"count":4,"max":[0,5.551115123125783e-17,-1],"min":[0,5.551115123125783e-17,-1],"type":"VEC3"},{"bufferView":22,"componentType":5126,"count":4,"max":[0.0625,0.5],"min":[0,0],"type":"VEC2"},{"bufferView":23,"componentType":5123,"count":6,"max":[3],"min":[0],"type":"SCALAR"},{"bufferView":24,"componentType":5126,"count":4,"max":[0.03125,0.375,0],"min":[-0.03125,-0.0625,-2.7755575615628914e-17],"type":"VEC3"},{"bufferView":25,"componentType":5126,"count":4,"max":[0,6.34413185289139e-17,-1],"min":[0,6.34413185289139e-17,-1],"type":"VEC3"},{"bufferView":26,"componentType":5126,"count":4,"max":[0.0625,0.5625],"min":[0,0.0625],"type":"VEC2"},{"bufferView":27,"componentType":5123,"count":6,"max":[3],"min":[0],"type":"SCALAR"},{"bufferView":28,"componentType":5126,"count":4,"max":[0.03125,0.375,0],"min":[-0.03125,-0.125,-2.7755575615628914e-17],"type":"VEC3"},{"bufferView":29,"componentType":5126,"count":4,"max":[0,5.551115123125783e-17,-1],"min":[0,5.551115123125783e-17,-1],"type":"VEC3"},{"bufferView":30,"componentType":5126,"count":4,"max":[0.0625,0.5],"min":[0,0],"type":"VEC2"},{"bufferView":31,"componentType":5123,"count":6,"max":[3],"min":[0],"type":"SCALAR"},{"bufferView":32,"componentType":5126,"count":4,"max":[0.1875,0,0.1875],"min":[-0.1875,0,-0.1875],"type":"VEC3"},{"bufferView":33,"componentType":5126,"count":4,"max":[0,1,0],"min":[0,1,0],"type":"VEC3"},{"bufferView":34,"componentType":5126,"count":4,"max":[0.5,0.375],"min":[0.125,0],"type":"VEC2"},{"bufferView":35,"componentType":5123,"count":6,"max":[3],"min":[0],"type":"SCALAR"},{"bufferView":36,"componentType":5126,"count":4,"max":[0.1875,0,0.1875],"min":[-0.1875,0,-0.1875],"type":"VEC3"},{"bufferView":37,"componentType":5126,"count":4,"max":[0,1,0],"min":[0,1,0],"type":"VEC3"},{"bufferView":38,"componentType":5126,"count":4,"max":[0.5,0.375],"min":[0.125,0],"type":"VEC2"},{"bufferView":39,"componentType":5123,"count":6,"max":[3],"min":[0],"type":"SCALAR"},{"bufferView":40,"componentType":5126,"count":4,"max":[0.03125,0.375,0],"min":[-0.03125,-0.1875,-2.7755575615628914e-17],"type":"VEC3"},{"bufferView":41,"componentType":5126,"count":4,"max":[0,4.9343245906531674e-17,-1],"min":[0,4.9343245906531674e-17,-1],"type":"VEC3"},{"bufferView":42,"componentType":5126,"count":4,"max":[0.0625,0.5625],"min":[0,0.0625],"type":"VEC2"},{"bufferView":43,"componentType":5123,"count":6,"max":[3],"min":[0],"type":"SCALAR"},{"bufferView":44,"componentType":5126,"count":4,"max":[0.1875,0,0.1875],"min":[-0.1875,0,-0.1875],"type":"VEC3"},{"bufferView":45,"componentType":5126,"count":4,"max":[0,1,0],"min":[0,1,0],"type":"VEC3"},{"bufferView":46,"componentType":5126,"count":4,"max":[0.5,0.375],"min":[0.125,0],"type":"VEC2"},{"bufferView":47,"componentType":5123,"count":6,"max":[3],"min":[0],"type":"SCALAR"},{"bufferView":48,"componentType":5126,"count":4,"max":[0.1875,0,0.1875],"min":[-0.1875,0,-0.1875],"type":"VEC3"},{"bufferView":49,"componentType":5126,"count":4,"max":[0,1,0],"min":[0,1,0],"type":"VEC3"},{"bufferView":50,"componentType":5126,"count":4,"max":[0.5,0.375],"min":[0.125,0],"type":"VEC2"},{"bufferView":51,"componentType":5123,"count":6,"max":[3],"min":[0],"type":"SCALAR"},{"bufferView":52,"componentType":5126,"count":4,"max":[0.03125,0.375,0],"min":[-0.03125,0,-2.7755575615628914e-17],"type":"VEC3"},{"bufferView":53,"componentType":5126,"count":4,"max":[0,7.401487051415874e-17,-1],"min":[0,7.401487051415874e-17,-1],"type":"VEC3"},{"bufferView":54,"componentType":5126,"count":4,"max":[0.0625,0.5],"min":[0,0],"type":"VEC2"},{"bufferView":55,"componentType":5123,"count":6,"max":[3],"min":[0],"type":"SCALAR"},{"bufferView":56,"componentType":5126,"count":4,"max":[0.03125,0.375,0],"min":[-0.03125,0,-2.7755575615628914e-17],"type":"VEC3"},{"bufferView":57,"componentType":5126,"count":4,"max":[0,7.401487051415874e-17,-1],"min":[0,7.401487051415874e-17,-1],"type":"VEC3"},{"bufferView":58,"componentType":5126,"count":4,"max":[0.0625,0.5625],"min":[0,0.0625],"type":"VEC2"},{"bufferView":59,"componentType":5123,"count":6,"max":[3],"min":[0],"type":"SCALAR"}],"materials":[{"pbrMetallicRoughness":{"metallicFactor":0,"roughnessFactor":1,"baseColorTexture":{"index":0}},"alphaMode":"MASK","alphaCutoff":0.05,"doubleSided":true},{"pbrMetallicRoughness":{"metallicFactor":0,"roughnessFactor":1,"baseColorTexture":{"index":1}},"alphaMode":"MASK","alphaCutoff":0.05,"doubleSided":true},{"pbrMetallicRoughness":{"metallicFactor":0,"roughnessFactor":1,"baseColorTexture":{"index":2}},"alphaMode":"MASK","alphaCutoff":0.05,"doubleSided":true}],"textures":[{"sampler":0,"source":0,"name":"test-texture"},{"sampler":1,"source":1,"name":"floor"},{"sampler":2,"source":2,"name":"tree"}],"samplers":[{"magFilter":9728,"minFilter":9728,"wrapS":33071,"wrapT":33071},{"magFilter":9728,"minFilter":9728,"wrapS":33071,"wrapT":33071},{"magFilter":9728,"minFilter":9728,"wrapS":33071,"wrapT":33071}],"images":[{"mimeType":"image/png","uri":"data:image/png;base64,"},{"mimeType":"image/png","uri":"data:image/png;base64,"},{"mimeType":"image/png","uri":"data:image/png;base64,"}],"meshes":[{"primitives":[{"mode":4,"attributes":{"POSITION":0,"NORMAL":1,"TEXCOORD_0":2},"indices":3,"material":0}]},{"primitives":[{"mode":4,"attributes":{"POSITION":4,"NORMAL":5,"TEXCOORD_0":6},"indices":7,"material":0}]},{"primitives":[{"mode":4,"attributes":{"POSITION":8,"NORMAL":9,"TEXCOORD_0":10},"indices":11,"material":1}]},{"primitives":[{"mode":4,"attributes":{"POSITION":12,"NORMAL":13,"TEXCOORD_0":14},"indices":15,"material":2}]},{"primitives":[{"mode":4,"attributes":{"POSITION":16,"NORMAL":17,"TEXCOORD_0":18},"indices":19,"material":2}]},{"primitives":[{"mode":4,"attributes":{"POSITION":20,"NORMAL":21,"TEXCOORD_0":22},"indices":23,"material":2}]},{"primitives":[{"mode":4,"attributes":{"POSITION":24,"NORMAL":25,"TEXCOORD_0":26},"indices":27,"material":2}]},{"primitives":[{"mode":4,"attributes":{"POSITION":28,"NORMAL":29,"TEXCOORD_0":30},"indices":31,"material":2}]},{"primitives":[{"mode":4,"attributes":{"POSITION":32,"NORMAL":33,"TEXCOORD_0":34},"indices":35,"material":2}]},{"primitives":[{"mode":4,"attributes":{"POSITION":36,"NORMAL":37,"TEXCOORD_0":38},"indices":39,"material":2}]},{"primitives":[{"mode":4,"attributes":{"POSITION":40,"NORMAL":41,"TEXCOORD_0":42},"indices":43,"material":2}]},{"primitives":[{"mode":4,"attributes":{"POSITION":44,"NORMAL":45,"TEXCOORD_0":46},"indices":47,"material":2}]},{"primitives":[{"mode":4,"attributes":{"POSITION":48,"NORMAL":49,"TEXCOORD_0":50},"indices":51,"material":2}]},{"primitives":[{"mode":4,"attributes":{"POSITION":52,"NORMAL":53,"TEXCOORD_0":54},"indices":55,"material":2}]},{"primitives":[{"mode":4,"attributes":{"POSITION":56,"NORMAL":57,"TEXCOORD_0":58},"indices":59,"material":2}]}]}